<?xml version="1.0" encoding="iso-8859-1"?>
<!-- Generator: Adobe Illustrator 18.1.1, SVG Export Plug-In . SVG Version: 6.00 Build 0)  -->
<svg version="1.1" id="Layer_1" xmlns="http://www.w3.org/2000/svg" xmlns:xlink="http://www.w3.org/1999/xlink" x="0px" y="0px"
	 viewBox="0 0 441.947 447.142" style="enable-background:new 0 0 441.947 447.142;" xml:space="preserve">
<g>
	<g id="dashed_x5F__x5F_circle">
		
			<circle style="fill:none;stroke:#000000;stroke-width:2.3766;stroke-miterlimit:10;stroke-dasharray:14.2977,14.2977;" cx="220.973" cy="223.571" r="213.894"/>
	</g>
	<polygon id="bottom_x5F__x5F_right" style="fill:#5B5B5B;" points="392.089,223.571 327.92,266.35 327.92,330.227 263.752,330.227 
		220.973,394.686 349.31,351.617 	"/>
	<polygon id="top_x5F__x5F_right" style="fill:#414141;" points="220.973,52.456 263.752,116.624 327.92,116.624 327.92,180.792 
		392.089,223.571 349.31,95.235 	"/>
	<polygon id="bottom_x5F__x5F_left" points="220.973,394.686 178.195,330.518 114.317,330.518 114.317,266.35 49.858,223.571 
		92.637,351.907 	"/>
	<polygon id="top_x5F__x5F_left" style="fill:#141414;" points="49.858,223.571 114.027,180.792 114.027,116.624 178.195,116.624 
		220.973,52.456 92.637,94.944 	"/>
	<polyline style="fill:#141414;" points="220.973,223.571 263.752,116.624 327.92,116.624 	"/>
	<polygon points="220.973,223.571 327.92,116.624 327.92,180.792 	"/>
	<polygon points="220.973,223.571 220.973,52.456 263.752,116.624 	"/>
	<polygon points="220.973,223.571 392.089,223.571 327.92,266.35 	"/>
	<polygon style="fill:#141414;" points="220.973,223.571 392.089,223.571 327.92,180.792 	"/>
	<polygon style="fill:#141414;" points="220.973,223.571 263.752,330.227 220.973,394.686 	"/>
	<polygon points="220.973,223.571 263.752,330.518 327.92,330.518 	"/>
	<polygon style="fill:#141414;" points="220.973,223.571 327.92,266.35 327.92,330.518 	"/>
	<polygon style="fill:#414141;" points="220.973,223.571 220.973,52.456 178.195,116.624 	"/>
	<polygon style="fill:#5B5B5B;" points="220.973,223.571 178.195,116.624 114.027,116.624 	"/>
	<polygon style="fill:#414141;" points="221.085,223.652 114.027,180.792 114.027,116.624 	"/>
	<polygon style="fill:#5B5B5B;" points="220.973,223.571 114.027,180.792 49.858,223.571 	"/>
	<polygon style="fill:#414141;" points="220.973,223.571 114.027,266.35 49.858,223.571 	"/>
	<polygon style="fill:#5B5B5B;" points="220.973,223.571 114.027,266.35 114.027,330.518 	"/>
	<polygon style="fill:#414141;" points="220.973,223.571 178.195,330.518 114.027,330.518 	"/>
	<polygon style="fill:#5B5B5B;" points="220.973,223.571 178.195,330.518 220.973,394.686 	"/>
	<g id="M">
		<path style="fill:#FFFFFF;" d="M178.195,266.35l-0.411-10.695l-0.346-10.695c-0.178-7.13-0.413-14.26-0.543-21.389
			c-0.139-7.13-0.327-14.26-0.415-21.389l-0.311-21.389l-0.071-4.902l3.53,3.47l21.572,21.207l21.454,21.324l-3.354-0.006
			l21.453-21.18l10.778-10.538l10.793-10.523l3.529-3.441l-0.071,4.88l-0.31,21.317c-0.088,7.106-0.275,14.211-0.415,21.317
			c-0.13,7.106-0.366,14.211-0.544,21.317l-0.347,10.658l-0.412,10.658l-0.412-10.658l-0.347-10.658
			c-0.178-7.106-0.414-14.211-0.544-21.317c-0.141-7.106-0.327-14.211-0.415-21.317l-0.31-21.317l3.457,1.439l-10.597,10.721
			l-10.612,10.706l-21.325,21.309l-1.68,1.679l-1.674-1.685l-21.324-21.454l-21.207-21.572l3.458-1.432l-0.311,21.389
			c-0.088,7.13-0.276,14.26-0.415,21.389c-0.13,7.13-0.366,14.26-0.543,21.389l-0.346,10.695L178.195,266.35z"/>
	</g>
</g>
</svg>
