<?xml version="1.0" encoding="iso-8859-1"?>
<!-- Generator: Adobe Illustrator 18.1.1, SVG Export Plug-In . SVG Version: 6.00 Build 0) -->
<svg version="1.1" id="Layer_1" xmlns="http://www.w3.org/2000/svg" xmlns:xlink="http://www.w3.org/1999/xlink" x="0px" y="0px" viewBox="0 0 960 450" style="enable-background:new 0 0 960 560;" xml:space="preserve">
	<g>
		<path style="fill:#FFFFFF;margin: 0;" d="M321.266,279.865l1.393,74.737l-1.75-1.75l75.102-1.05l-2.8,2.8l-0.7-75.102l3.5,3.5
		L321.266,279.865z M320.909,279.15L396.01,276c1.854-0.078,3.421,1.362,3.498,3.217l0.003,0.161l-0.001,0.123l-0.7,75.102
		l-0.001,0.065c-0.014,1.525-1.262,2.749-2.787,2.735l-0.013,0l-75.102-1.05l-0.057-0.001c-0.948-0.013-1.707-0.793-1.693-1.741
		l0-0.008l1.4-75.102c0.004-0.189,0.154-0.341,0.34-0.35L320.909,279.15z" />
	</g>
	<g>
		<path style="fill:#FFFFFF;margin: 0;" d="M565.683,354.602l-1.4-75.102c-0.018-0.948,0.737-1.731,1.685-1.749l0.008,0l0.057-0.001
		l75.102-1.05c1.525-0.021,2.778,1.197,2.799,2.722l0,0.013l0.001,0.065l0.7,75.102l0.001,0.111
		c0.017,1.856-1.473,3.374-3.329,3.392c-0.054,0-0.119-0.001-0.172-0.003l-75.102-3.15l-0.008,0
		C565.835,354.943,565.686,354.788,565.683,354.602z M566.389,354.237l74.745-3.135l-3.5,3.5l0.7-75.102l2.8,2.8l-75.102-1.05
		l1.75-1.75L566.389,354.237z" />
	</g>
	<g>
		<path style="fill:#FFFFFF;margin: 0;" d="M650.877,204.766l0.929,74.734l0.467,37.551l0.35,37.551l-2.1-2.1l75.102-0.7l-2.8,2.8
		c-0.085-3.129-0.211-6.258-0.263-9.388l-0.186-9.388l-0.186-9.388l-0.112-9.388c-0.086-6.258-0.11-12.517-0.14-18.775
		c-0.047-6.258-0.038-12.517-0.026-18.775l0.012-9.388l0.057-9.388l0.144-18.775l0.264-18.775l0.147-9.388l0.193-9.388l2.896,2.896
		l-9.388-0.193l-9.388-0.242c-6.258-0.167-12.517-0.326-18.775-0.549l-9.388-0.316l-9.388-0.39l-9.388-0.39
		C656.899,205.1,653.888,204.916,650.877,204.766z M650.522,204.048c3.129-0.153,6.258-0.348,9.388-0.467l9.388-0.39l9.388-0.39
		l9.388-0.316c6.258-0.222,12.517-0.382,18.775-0.549l9.388-0.242l9.388-0.193c1.566-0.032,2.862,1.211,2.894,2.778l0.002,0.119
		l0.193,9.388l0.147,9.388l0.264,18.775l0.144,18.775l0.057,9.388l0.012,9.388c0.012,6.258,0.021,12.517-0.026,18.775
		c-0.03,6.258-0.054,12.517-0.14,18.775l-0.112,9.388l-0.186,9.388l-0.186,9.388c-0.051,3.129-0.178,6.258-0.263,9.388l-0.003,0.103
		c-0.041,1.513-1.29,2.71-2.797,2.697l-75.102-0.7l-0.039,0c-1.149-0.011-2.072-0.951-2.061-2.1l0.35-37.551l0.467-37.551
		l0.933-75.102c0.002-0.188,0.151-0.34,0.336-0.349L650.522,204.048z" />
	</g>
	<g>
		<path style="fill:#FFFFFF;margin: 0;" d="M660.26,213.264c0.387,10.996,0.682,21.992,0.996,32.987l0.455,16.494l0.367,16.494l0.75,32.987
		c0.131,5.498,0.289,10.996,0.469,16.494c0.094,2.749,0.146,5.498,0.204,8.247c0.029,2.749,0.072,5.498,0.046,8.247l-3.635-3.636
		c2.369-0.005,4.737,0.039,7.106,0.088c2.369,0.029,4.737,0.123,7.106,0.201l3.553,0.119c1.184,0.045,2.369,0.067,3.553,0.132
		l7.106,0.348c2.369,0.105,4.737,0.29,7.106,0.432c2.369,0.137,4.737,0.338,7.106,0.522c2.369,0.171,4.737,0.418,7.106,0.632
		c2.369,0.241,4.737,0.503,7.106,0.811c0.193,0.025,0.33,0.202,0.305,0.395c-0.021,0.162-0.15,0.284-0.305,0.305
		c-2.369,0.308-4.737,0.57-7.106,0.811c-2.369,0.214-4.737,0.462-7.106,0.632c-2.369,0.185-4.737,0.386-7.106,0.522
		c-2.369,0.141-4.737,0.327-7.106,0.432l-7.106,0.348c-1.184,0.065-2.369,0.087-3.553,0.132l-3.553,0.119
		c-2.369,0.078-4.737,0.172-7.106,0.201c-2.369,0.049-4.737,0.093-7.106,0.088c-1.997-0.005-3.615-1.615-3.635-3.606l0-0.03
		c-0.027-2.749,0.017-5.498,0.046-8.247c0.058-2.749,0.11-5.498,0.204-8.247c0.18-5.498,0.338-10.996,0.469-16.494l0.75-32.987
		l0.367-16.494l0.455-16.494c0.314-10.996,0.609-21.992,0.996-32.987c0.007-0.193,0.169-0.344,0.362-0.338
		C660.107,212.933,660.253,213.083,660.26,213.264z" />
	</g>
	<g>
		<path style="fill:#FFFFFF;margin: 0;" d="M566.554,269.762c0,0,1.173-0.098,3.227-0.269c2.054-0.185,4.987-0.367,8.508-0.627
		c1.76-0.126,3.667-0.262,5.684-0.406c2.017-0.128,4.144-0.264,6.344-0.404c4.401-0.294,9.094-0.501,13.788-0.743
		c2.347-0.12,4.694-0.293,7.004-0.479c2.31-0.195,4.584-0.336,6.784-0.368c2.2-0.015,4.327,0.081,6.344,0.248
		c2.017,0.151,3.924,0.353,5.684,0.588c1.76,0.227,3.374,0.489,4.804,0.764c1.43,0.271,2.677,0.535,3.704,0.791
		c2.054,0.5,3.227,0.905,3.227,0.905c0.193,0.067,0.296,0.277,0.229,0.471c-0.038,0.111-0.126,0.193-0.229,0.229
		c0,0-1.173,0.405-3.227,0.905c-1.027,0.256-2.274,0.52-3.704,0.791c-1.43,0.276-3.044,0.537-4.804,0.764
		c-1.76,0.235-3.667,0.437-5.684,0.588c-2.017,0.168-4.144,0.263-6.344,0.248c-2.2-0.031-4.474-0.173-6.784-0.368
		c-2.31-0.186-4.657-0.359-7.004-0.479c-4.694-0.242-9.388-0.449-13.788-0.743c-2.2-0.14-4.327-0.275-6.344-0.404
		c-2.017-0.144-3.924-0.281-5.684-0.406c-3.52-0.26-6.454-0.443-8.508-0.627c-2.054-0.171-3.227-0.269-3.227-0.269
		c-0.193-0.016-0.337-0.186-0.321-0.379C566.248,269.91,566.386,269.776,566.554,269.762z" />
	</g>
	<g>
		<path style="fill:#FFFFFF;margin: 0;" d="M330.505,344.536c2.103-4.816,4.231-9.619,6.389-14.407l6.44-14.382l6.546-14.329
		c2.17-4.782,4.372-9.549,6.597-14.304c0.643-1.373,2.277-1.965,3.65-1.323c0.469,0.22,0.848,0.555,1.116,0.957l0.243,0.366
		c1.464,2.202,2.771,4.482,4.09,6.756c1.276,2.296,2.551,4.592,3.755,6.924c2.417,4.659,4.698,9.386,6.863,14.17
		c2.164,4.785,4.211,9.629,6.123,14.541c0.961,2.453,1.85,4.942,2.738,7.432c0.846,2.511,1.703,5.016,2.403,7.599
		c0.052,0.19-0.061,0.386-0.251,0.438c-0.143,0.039-0.289-0.015-0.375-0.125c-1.646-2.11-3.136-4.299-4.637-6.482
		c-1.459-2.204-2.916-4.409-4.303-6.65c-2.782-4.476-5.429-9.02-7.959-13.622c-2.529-4.603-4.941-9.264-7.218-13.993
		c-1.143-2.362-2.215-4.76-3.286-7.158c-1.029-2.419-2.068-4.833-2.951-7.325h5.009c-2.469,4.633-4.961,9.254-7.485,13.86
		l-7.536,13.834l-7.641,13.781c-2.536,4.6-5.102,9.184-7.693,13.756c-0.095,0.168-0.309,0.228-0.478,0.132
		C330.496,344.892,330.435,344.698,330.505,344.536z" />
	</g>
	<g>
		<path style="fill:#FFFFFF;margin: 0;" d="M236.069,354.602l-0.933-75.102l-0.467-37.551l-0.35-37.551c-0.011-1.149,0.912-2.089,2.061-2.1
		l0.039,0l75.102-0.7c1.514-0.014,2.755,1.187,2.797,2.694l0.003,0.106c0.085,3.129,0.211,6.258,0.263,9.388l0.186,9.388
		l0.186,9.388l0.112,9.388c0.086,6.258,0.11,12.517,0.14,18.775c0.047,6.258,0.038,12.517,0.026,18.775l-0.012,9.388l-0.057,9.388
		l-0.144,18.775l-0.264,18.775l-0.147,9.388l-0.193,9.388l-0.002,0.119c-0.032,1.566-1.328,2.81-2.894,2.778l-9.388-0.193
		l-9.388-0.242c-6.258-0.167-12.517-0.326-18.775-0.549l-9.388-0.316l-9.388-0.39l-9.388-0.39c-3.129-0.119-6.258-0.314-9.388-0.467
		l-0.013-0.001C236.218,354.942,236.072,354.787,236.069,354.602z M236.774,354.234c3.011-0.15,6.022-0.334,9.033-0.449l9.388-0.39
		l9.388-0.39l9.388-0.316c6.258-0.222,12.517-0.382,18.775-0.549l9.388-0.242l9.388-0.193l-2.896,2.896l-0.193-9.388l-0.147-9.388
		l-0.264-18.775l-0.144-18.775l-0.057-9.388l-0.012-9.388c-0.012-6.258-0.021-12.517,0.026-18.775
		c0.03-6.258,0.054-12.517,0.14-18.775l0.112-9.388l0.186-9.388l0.186-9.388c0.051-3.129,0.178-6.258,0.263-9.388l2.8,2.8
		l-75.102-0.7l2.1-2.1l-0.35,37.551l-0.467,37.551L236.774,354.234z" />
	</g>
	<g>
		<path style="fill:#FFFFFF;margin: 0;" d="M246.157,213.264c0,0,0.098,2.054,0.269,5.647c0.151,3.594,0.368,8.728,0.627,14.888
		c0.126,3.08,0.262,6.417,0.406,9.947c0.128,3.53,0.264,7.252,0.404,11.102c0.294,7.701,0.501,15.915,0.743,24.129
		c0.12,4.107,0.293,8.214,0.479,12.257c0.195,4.043,0.337,8.022,0.367,11.872c-0.002,3.85-0.081,7.573-0.248,11.102
		c-0.151,3.53-0.353,6.867-0.588,9.947c-0.227,3.08-0.489,5.904-0.764,8.407c-0.271,2.503-0.535,4.685-0.791,6.482
		c-0.5,3.594-0.905,5.647-0.905,5.647c-0.038,0.193-0.226,0.319-0.419,0.281c-0.146-0.029-0.254-0.143-0.281-0.281
		c0,0-0.405-2.054-0.905-5.647c-0.256-1.797-0.52-3.979-0.791-6.482c-0.276-2.503-0.537-5.326-0.764-8.407
		c-0.235-3.08-0.437-6.417-0.588-9.947c-0.167-3.53-0.246-7.252-0.248-11.102c0.03-3.85,0.173-7.829,0.367-11.872
		c0.186-4.043,0.359-8.15,0.479-12.257c0.242-8.214,0.449-16.428,0.743-24.129c0.14-3.85,0.275-7.573,0.404-11.102
		c0.144-3.53,0.281-6.867,0.406-9.947c0.26-6.161,0.476-11.295,0.627-14.888c0.171-3.594,0.269-5.647,0.269-5.647
		c0.009-0.193,0.173-0.343,0.367-0.333C246.005,212.94,246.148,213.087,246.157,213.264z" />
	</g>
	<g>
		<path style="fill:#FFFFFF;margin: 0;" d="M302.389,344.92c-4.901-5.299-9.781-10.615-14.635-15.954l-14.591-15.992l-14.502-16.068
		c-4.844-5.348-9.661-10.718-14.458-16.105c-0.864-0.971-0.907-2.389-0.176-3.401l0.176-0.244c1.058-1.468,2.133-2.921,3.233-4.354
		l3.325-4.275l3.397-4.213c1.131-1.405,2.304-2.775,3.454-4.164c2.289-2.788,4.686-5.483,7.03-8.224
		c1.178-1.365,2.395-2.697,3.591-4.046l3.602-4.037l3.671-3.978c1.229-1.322,2.436-2.662,3.682-3.969
		c2.505-2.603,4.957-5.25,7.517-7.806c1.275-1.282,2.526-2.585,3.819-3.851l3.877-3.802l3.948-3.74
		c1.325-1.239,2.675-2.457,4.041-3.661c0.146-0.129,0.37-0.115,0.499,0.031c0.107,0.121,0.115,0.295,0.033,0.424
		c-0.981,1.534-1.978,3.054-3,4.553l-3.092,4.474l-3.164,4.412c-1.054,1.472-2.149,2.908-3.221,4.363
		c-2.134,2.92-4.376,5.749-6.565,8.622c-1.101,1.431-2.24,2.829-3.359,4.246l-3.37,4.236l-3.438,4.177
		c-1.151,1.388-2.281,2.795-3.45,4.168c-2.35,2.736-4.647,5.516-7.052,8.205c-1.197,1.349-2.371,2.717-3.587,4.05l-3.644,4.001
		l-3.716,3.94c-1.248,1.305-2.52,2.59-3.808,3.86v-3.644c4.591,5.565,9.161,11.147,13.705,16.751l13.661,16.789l13.572,16.865
		c4.534,5.613,9.041,11.249,13.528,16.903c0.12,0.152,0.095,0.372-0.057,0.492C302.72,345.071,302.512,345.053,302.389,344.92z" />
	</g>
	<g>
		<path style="fill:#FFFFFF;margin: 0;" d="M405.048,354.602l-1.4-150.203c-0.009-0.958,0.76-1.741,1.718-1.75l0.004,0l0.029,0l150.203-1.05
		c1.536-0.011,2.789,1.225,2.8,2.761v0.006l0,0.033l0.7,150.203l0,0.056c0.009,1.893-1.519,3.436-3.413,3.444
		c-0.024,0-0.064,0-0.088-0.001l-150.203-3.15C405.207,354.95,405.052,354.792,405.048,354.602z M405.752,354.244l149.85-3.143
		l-3.5,3.5l0.7-150.203l2.8,2.8l-150.203-1.05l1.75-1.75L405.752,354.244z" />
	</g>
	<g>
		<path style="fill:#FFFFFF;margin: 0;" d="M414.436,344.693l-0.844-65.714l-0.736-65.714c-0.012-1.061,0.839-1.931,1.899-1.943
		c0.528-0.006,1.009,0.202,1.361,0.543l0.032,0.032l66.59,65.096l-3.962,0.008l32.345-33.237l8.083-8.312l8.124-8.271l8.124-8.271
		l8.19-8.206l0.019-0.019c1.412-1.415,3.705-1.417,5.12-0.005c0.712,0.71,1.066,1.654,1.063,2.586l-0.108,16.428l-0.215,16.428
		c-0.088,5.476-0.13,10.952-0.26,16.429l-0.338,16.428l-0.431,16.428c-0.131,5.476-0.343,10.952-0.516,16.428
		c-0.165,5.476-0.416,10.952-0.62,16.428c-0.239,5.476-0.493,10.952-0.793,16.428c-0.011,0.193-0.176,0.341-0.369,0.331
		c-0.18-0.01-0.321-0.155-0.331-0.331c-0.3-5.476-0.555-10.952-0.793-16.428c-0.204-5.476-0.455-10.952-0.62-16.428
		c-0.173-5.476-0.385-10.952-0.516-16.428l-0.431-16.428l-0.338-16.428c-0.13-5.476-0.172-10.952-0.26-16.429l-0.215-16.428
		l-0.108-16.428l6.202,2.562l-8.173,8.222l-8.239,8.157l-8.239,8.157l-8.28,8.116l-33.108,32.477l-0.042,0.041
		c-1.094,1.073-2.847,1.061-3.921-0.033l-65.359-66.332l3.292-1.367l-0.736,65.714l-0.844,65.714
		c-0.002,0.193-0.161,0.348-0.354,0.346C414.591,345.036,414.439,344.882,414.436,344.693z" />
	</g>
	<g>
		<path style="fill:#FFFFFF;margin: 0;" d="M320.559,270.112l-0.684-32.857l-0.627-32.857c-0.017-0.899,0.698-1.642,1.597-1.66l0.005,0
		l0.058-0.001l37.551-0.606l37.551-0.533c1.482-0.021,2.708,1.133,2.789,2.6l0.011,0.2c0.296,5.476,0.458,10.952,0.604,16.428
		l0.164,8.214c0.06,2.738,0.081,5.476,0.1,8.214l0.057,8.214l-0.016,8.214c0.015,5.476-0.095,10.952-0.151,16.428l-0.001,0.062
		c-0.02,1.951-1.607,3.516-3.557,3.496c-6.258-0.045-12.517-0.255-18.775-0.375c-3.129-0.06-6.258-0.194-9.388-0.287
		c-3.129-0.111-6.258-0.184-9.388-0.334l-9.388-0.403l-9.388-0.494l-9.388-0.588c-3.129-0.215-6.258-0.455-9.388-0.727l-0.024-0.002
		C320.702,270.444,320.563,270.291,320.559,270.112z M321.267,269.735c3.01-0.26,6.02-0.493,9.03-0.7l9.388-0.588l9.388-0.494
		l9.388-0.403c3.129-0.15,6.258-0.222,9.388-0.334c3.129-0.093,6.258-0.227,9.388-0.287c6.258-0.119,12.517-0.33,18.775-0.375
		l-3.558,3.558c-0.056-5.476-0.166-10.952-0.151-16.428l-0.016-8.214l0.057-8.214c0.02-2.738,0.04-5.476,0.1-8.214l0.164-8.214
		c0.146-5.476,0.308-10.952,0.604-16.428l2.8,2.8l-37.551-0.533l-37.551-0.606l1.66-1.66l-0.627,32.857L321.267,269.735z" />
	</g>
	<g>
		<path style="fill:#FFFFFF;margin: 0;" d="M564.639,260.725l-0.633-28.163l-0.575-28.163c-0.017-0.843,0.652-1.54,1.495-1.557l0.004,0
		l0.059-0.001l37.551-0.666l18.775-0.316l18.775-0.259c1.48-0.02,2.704,1.131,2.789,2.594l0.012,0.206
		c0.264,4.694,0.438,9.388,0.567,14.082c0.08,2.347,0.12,4.694,0.165,7.041c0.039,2.347,0.106,4.694,0.115,7.041l0.061,7.041
		c0.032,2.347,0.01,4.694,0.009,7.041l-0.015,7.041l-0.078,7.041l-0.001,0.088c-0.022,1.975-1.64,3.558-3.615,3.536l-0.008,0
		l-9.388-0.124l-9.388-0.226c-6.258-0.119-12.517-0.39-18.775-0.597l-9.388-0.43c-3.129-0.134-6.258-0.342-9.388-0.51
		c-3.129-0.17-6.258-0.407-9.388-0.61c-3.129-0.233-6.258-0.483-9.388-0.776l-0.026-0.002
		C564.781,261.055,564.643,260.903,564.639,260.725z M565.348,260.345c3.01-0.279,6.019-0.522,9.029-0.746
		c3.129-0.204,6.258-0.44,9.388-0.61c3.129-0.168,6.258-0.376,9.388-0.51l9.388-0.43c6.258-0.207,12.517-0.478,18.775-0.597
		l9.388-0.226l9.388-0.124l-3.623,3.623l-0.078-7.041l-0.015-7.041c-0.001-2.347-0.023-4.694,0.009-7.041l0.061-7.041
		c0.009-2.347,0.075-4.694,0.115-7.041c0.044-2.347,0.085-4.694,0.165-7.041c0.129-4.694,0.303-9.388,0.567-14.082l2.8,2.8
		l-18.775-0.259l-18.775-0.316l-37.551-0.666l1.558-1.558l-0.575,28.163L565.348,260.345z" />
	</g>
	<g>
		<path style="fill:#FFFFFF;margin: 0;" d="M227.553,354.952c0,0-2.347,0.416-5.867,0.917c-1.76,0.242-3.814,0.531-6.014,0.79
		c-2.2,0.294-4.547,0.501-6.894,0.743c-1.173,0.12-2.347,0.293-3.502,0.479c-1.155,0.188-2.292,0.348-3.392,0.368
		c-1.1,0.015-2.164-0.081-3.172-0.248c-1.008-0.151-1.962-0.353-2.842-0.588c-0.88-0.225-1.687-0.493-2.402-0.759
		c-0.715-0.257-1.338-0.551-1.852-0.796c-1.027-0.5-1.614-0.905-1.614-0.905c-0.193-0.133-0.242-0.398-0.109-0.591
		c0.03-0.043,0.068-0.08,0.109-0.109c0,0,0.587-0.405,1.614-0.905c0.513-0.245,1.137-0.539,1.852-0.796
		c0.715-0.266,1.522-0.534,2.402-0.759c0.88-0.235,1.834-0.437,2.842-0.588c1.008-0.168,2.072-0.263,3.172-0.248
		c1.1,0.02,2.237,0.18,3.392,0.368c1.155,0.186,2.329,0.359,3.502,0.479c2.347,0.242,4.694,0.449,6.894,0.743
		c2.2,0.259,4.254,0.548,6.014,0.79c3.52,0.5,5.867,0.917,5.867,0.917c0.193,0.034,0.322,0.219,0.288,0.412
		C227.814,354.815,227.695,354.926,227.553,354.952z" />
	</g>
	<g>
		<path style="fill:#FFFFFF;margin: 0;" d="M734.49,354.252c0,0,2.347-0.416,5.867-0.917c1.76-0.242,3.814-0.531,6.014-0.79
		c2.2-0.294,4.547-0.501,6.894-0.743c1.173-0.12,2.347-0.293,3.502-0.479c1.155-0.188,2.292-0.348,3.392-0.368
		c1.1-0.015,2.164,0.081,3.172,0.248c1.008,0.151,1.962,0.353,2.842,0.588c0.88,0.225,1.687,0.493,2.402,0.759
		c0.715,0.257,1.339,0.551,1.852,0.796c1.027,0.5,1.614,0.905,1.614,0.905c0.193,0.133,0.242,0.398,0.109,0.591
		c-0.03,0.043-0.068,0.08-0.109,0.109c0,0-0.587,0.405-1.614,0.905c-0.513,0.245-1.137,0.539-1.852,0.796
		c-0.715,0.266-1.522,0.534-2.402,0.759c-0.88,0.235-1.834,0.437-2.842,0.588c-1.008,0.168-2.072,0.263-3.172,0.248
		c-1.1-0.02-2.237-0.18-3.392-0.368c-1.155-0.186-2.329-0.359-3.502-0.479c-2.347-0.242-4.694-0.449-6.894-0.743
		c-2.2-0.259-4.254-0.548-6.014-0.79c-3.52-0.5-5.867-0.917-5.867-0.917c-0.193-0.034-0.322-0.219-0.288-0.412
		C734.229,354.389,734.348,354.277,734.49,354.252z" />
	</g>
	<g>
		<path style="fill:#FFFFFF;margin: 0;" d="M29.539,354.602l-1.4-150.203c-0.009-0.958,0.76-1.741,1.718-1.75l0.004,0l0.029,0l150.203-1.05
		c1.536-0.011,2.789,1.225,2.8,2.761l0,0.006l0,0.033l0.7,150.203l0,0.056c0.009,1.893-1.519,3.436-3.413,3.444
		c-0.024,0-0.064,0-0.088-0.001l-150.203-3.15C29.698,354.95,29.544,354.792,29.539,354.602z M30.243,354.244l149.85-3.143l-3.5,3.5
		l0.7-150.203l2.8,2.8l-150.203-1.05l1.75-1.75L30.243,354.244z" />
	</g>
	<g>
		<path style="fill:#FFFFFF;margin: 0;" d="M38.927,344.693l-0.844-65.714l-0.736-65.714c-0.012-1.061,0.839-1.931,1.899-1.943
		c0.528-0.006,1.009,0.202,1.361,0.543l0.032,0.032l66.59,65.096l-3.962,0.008l32.345-33.237l8.083-8.312l8.124-8.271l8.124-8.271
		l8.19-8.206l0.019-0.019c1.412-1.415,3.705-1.417,5.12-0.005c0.712,0.71,1.066,1.654,1.063,2.586l-0.108,16.428l-0.215,16.428
		c-0.088,5.476-0.13,10.952-0.26,16.429l-0.338,16.428l-0.431,16.428c-0.131,5.476-0.343,10.952-0.516,16.428
		c-0.165,5.476-0.416,10.952-0.62,16.428c-0.239,5.476-0.493,10.952-0.793,16.428c-0.011,0.193-0.176,0.341-0.369,0.331
		c-0.18-0.01-0.321-0.155-0.331-0.331c-0.3-5.476-0.554-10.952-0.793-16.428c-0.204-5.476-0.455-10.952-0.62-16.428
		c-0.173-5.476-0.385-10.952-0.516-16.428l-0.431-16.428l-0.338-16.428c-0.13-5.476-0.172-10.952-0.26-16.429l-0.215-16.428
		l-0.108-16.428l6.202,2.562l-8.173,8.222l-8.239,8.157l-8.239,8.157l-8.28,8.116l-33.108,32.477l-0.042,0.041
		c-1.094,1.073-2.847,1.061-3.921-0.033l-65.359-66.332l3.292-1.367l-0.736,65.714l-0.844,65.714
		c-0.002,0.193-0.161,0.348-0.354,0.346C39.082,345.036,38.93,344.882,38.927,344.693z" />
	</g>
	<g>
		<path style="fill:#FFFFFF;margin: 0;" d="M780.557,354.602l-1.4-150.203c-0.009-0.958,0.76-1.741,1.718-1.75l0.004,0l0.029,0l150.203-1.05
		c1.536-0.011,2.789,1.225,2.8,2.761l0,0.006l0,0.033l0.7,150.203l0,0.056c0.009,1.893-1.519,3.436-3.413,3.444
		c-0.024,0-0.064,0-0.088-0.001l-150.203-3.15C780.716,354.95,780.561,354.792,780.557,354.602z M781.26,354.244l149.85-3.143
		l-3.5,3.5l0.7-150.203l2.8,2.8l-150.203-1.05l1.75-1.75L781.26,354.244z" />
	</g>
	<g>
		<path style="fill:#FFFFFF;margin: 0;" d="M789.945,344.693l-0.844-65.714l-0.736-65.714c-0.012-1.061,0.839-1.931,1.9-1.943
		c0.528-0.006,1.009,0.202,1.36,0.543l0.032,0.032l66.59,65.096l-3.963,0.008l32.345-33.237l8.083-8.312l8.124-8.271l8.124-8.271
		l8.19-8.206l0.019-0.019c1.412-1.415,3.705-1.417,5.12-0.005c0.712,0.71,1.066,1.654,1.063,2.586l-0.108,16.428l-0.215,16.428
		c-0.088,5.476-0.13,10.952-0.26,16.429l-0.338,16.428l-0.431,16.428c-0.131,5.476-0.343,10.952-0.516,16.428
		c-0.165,5.476-0.416,10.952-0.62,16.428c-0.239,5.476-0.493,10.952-0.793,16.428c-0.011,0.193-0.176,0.341-0.369,0.331
		c-0.18-0.01-0.321-0.155-0.331-0.331c-0.3-5.476-0.555-10.952-0.793-16.428c-0.204-5.476-0.455-10.952-0.62-16.428
		c-0.173-5.476-0.385-10.952-0.516-16.428l-0.431-16.428l-0.338-16.428c-0.13-5.476-0.172-10.952-0.26-16.429l-0.215-16.428
		l-0.108-16.428l6.202,2.562l-8.173,8.222l-8.239,8.157l-8.239,8.157l-8.28,8.116l-33.108,32.477l-0.042,0.041
		c-1.094,1.073-2.847,1.061-3.921-0.033l-65.359-66.332l3.292-1.367l-0.736,65.714l-0.844,65.714
		c-0.002,0.193-0.161,0.348-0.354,0.346C790.1,345.036,789.947,344.882,789.945,344.693z" />
	</g>
</svg>
